<?xml version="1.0" encoding="UTF-8" standalone="no"?>
<svg xmlns="http://www.w3.org/2000/svg" xmlns:xlink="http://www.w3.org/1999/xlink" width="96" height="96" version="1.0">
  <defs>
    <radialGradient xlink:href="#a" id="m" cx="48" cy="90.171875" r="42" fx="48" fy="90.171875" gradientTransform="matrix(1.15731 0 0 .9959 -7.5510206 .19713193)" gradientUnits="userSpaceOnUse"/>
    <radialGradient xlink:href="#b" id="p" cx="43.392857" cy="30.464287" r="4.1071429" fx="43.392857" fy="30.464287" gradientUnits="userSpaceOnUse"/>
    <radialGradient xlink:href="#c" id="q" cx="53.542297" cy="24.639818" r="2.1428571" fx="53.542297" fy="24.639818" gradientUnits="userSpaceOnUse"/>
    <radialGradient xlink:href="#c" id="r" cx="62.678574" cy="37.607143" r="5.3571429" fx="62.678574" fy="37.607143" gradientUnits="userSpaceOnUse"/>
    <radialGradient xlink:href="#c" id="s" cx="30.529381" cy="62.282928" r="6.6071429" fx="30.529381" fy="62.282928" gradientUnits="userSpaceOnUse"/>
    <radialGradient xlink:href="#b" id="t" cx="65.730751" cy="71.637032" r="8.2142859" fx="65.730751" fy="71.637032" gradientUnits="userSpaceOnUse"/>
    <radialGradient xlink:href="#c" id="u" cx="48.795593" cy="56.425529" r="3.3928571" fx="48.795593" fy="56.425529" gradientUnits="userSpaceOnUse"/>
    <radialGradient xlink:href="#c" id="w" cx="33.899441" cy="87.035973" r="4.1071429" fx="33.899441" fy="87.035973" gradientUnits="userSpaceOnUse"/>
    <radialGradient xlink:href="#c" id="x" cx="50.863728" cy="86.75354" r="5.3571429" fx="50.863728" fy="86.75354" gradientUnits="userSpaceOnUse"/>
    <radialGradient xlink:href="#b" id="y" cx="73.392853" cy="13.678572" r="3.5714285" fx="73.392853" fy="13.678572" gradientUnits="userSpaceOnUse"/>
    <radialGradient xlink:href="#c" id="z" cx="80.714287" cy="25.642857" r="9.2857141" fx="80.714287" fy="25.642857" gradientUnits="userSpaceOnUse"/>
    <radialGradient xlink:href="#c" id="D" cx="34.68845" cy="5.0425529" r="6.0714288" fx="34.68845" fy="5.0425529" gradientUnits="userSpaceOnUse"/>
    <radialGradient xlink:href="#c" id="F" cx="60.238728" cy="7.8686676" r="2.7678571" fx="60.238728" fy="7.8686676" gradientUnits="userSpaceOnUse"/>
    <radialGradient xlink:href="#c" id="B" cx="82.597511" cy="69.737335" r="4.8214288" fx="82.597511" fy="69.737335" gradientUnits="userSpaceOnUse"/>
    <radialGradient xlink:href="#b" id="A" cx="78.237083" cy="79.565102" r="2.1428571" fx="78.237083" fy="79.565102" gradientUnits="userSpaceOnUse"/>
    <radialGradient xlink:href="#c" id="E" cx="3.0230496" cy="17.705017" r="7.1428571" fx="3.0230496" fy="17.705017" gradientTransform="matrix(1 0 0 .975 0 .37767813)" gradientUnits="userSpaceOnUse"/>
    <radialGradient xlink:href="#c" id="C" cx="12.649444" cy="34.282673" r="3.2142856" fx="12.649444" fy="34.282673" gradientUnits="userSpaceOnUse"/>
    <radialGradient xlink:href="#b" id="v" cx="12.211246" cy="77.45517" r="7.8571429" fx="12.211246" fy="77.45517" gradientUnits="userSpaceOnUse"/>
    <radialGradient xlink:href="#b" id="o" cx="24.821428" cy="26.357143" r="8.0357141" fx="24.821428" fy="26.357143" gradientUnits="userSpaceOnUse"/>
    <linearGradient id="b">
      <stop offset="0" stop-color="#e88d01" stop-opacity=".18431373"/>
      <stop offset=".5" stop-color="#e58907" stop-opacity=".4108527"/>
      <stop offset=".75" stop-color="#e48a0a" stop-opacity=".68217057"/>
      <stop offset="1" stop-color="#e4870a"/>
    </linearGradient>
    <linearGradient id="c">
      <stop offset="0" stop-color="#f0a801" stop-opacity=".18604651"/>
      <stop offset=".5" stop-color="#f0a801" stop-opacity=".35658914"/>
      <stop offset=".75" stop-color="#e8a301" stop-opacity=".83720928"/>
      <stop offset="1" stop-color="#e09201"/>
    </linearGradient>
    <linearGradient id="d">
      <stop offset="0" stop-color="#f0bf39"/>
      <stop offset="1" stop-color="#f8e699"/>
    </linearGradient>
    <linearGradient id="a">
      <stop offset="0" stop-color="#fff"/>
      <stop offset="1" stop-color="#fff" stop-opacity="0"/>
    </linearGradient>
    <linearGradient xlink:href="#a" id="l" x1="36.357143" x2="36.357143" y1="6" y2="63.893143" gradientUnits="userSpaceOnUse"/>
    <linearGradient xlink:href="#a" id="G" x1="48" x2="48" y1="20.220806" y2="138.66119" gradientUnits="userSpaceOnUse"/>
    <linearGradient xlink:href="#d" id="k" x1="48" x2="48" y1="90" y2="5.9877172" gradientUnits="userSpaceOnUse"/>
    <linearGradient id="e" x1="45.447727" x2="45.447727" y1="92.539597" y2="7.0165396" gradientTransform="matrix(1.00587 0 0 .99417 100 0)" gradientUnits="userSpaceOnUse">
      <stop offset="0"/>
      <stop offset="1" stop-opacity=".58823532"/>
    </linearGradient>
    <linearGradient xlink:href="#e" id="g" x1="32.251034" x2="32.251034" y1="6.1317081" y2="90.238609" gradientTransform="matrix(1.0238 0 0 1.0119 -1.1428571 -98.071429)" gradientUnits="userSpaceOnUse"/>
    <linearGradient xlink:href="#e" id="h" x1="32.251034" x2="32.251034" y1="6.1317081" y2="90.238609" gradientTransform="matrix(1.0238 0 0 1.0119 -1.1428571 -98.071429)" gradientUnits="userSpaceOnUse"/>
    <linearGradient xlink:href="#e" id="i" x1="32.251034" x2="32.251034" y1="6.1317081" y2="90.238609" gradientTransform="matrix(1.0238 0 0 1.0119 -1.1428571 -98.071429)" gradientUnits="userSpaceOnUse"/>
    <linearGradient xlink:href="#e" id="j" x1="32.251034" x2="32.251034" y1="6.1317081" y2="90.238609" gradientTransform="translate(0 -97)" gradientUnits="userSpaceOnUse"/>
    <linearGradient xlink:href="#e" id="f" x1="32.251034" x2="32.251034" y1="6.1317081" y2="90.238609" gradientTransform="matrix(1.0238 0 0 1.0119 -1.1428571 -98.071429)" gradientUnits="userSpaceOnUse"/>
    <clipPath id="H">
      <rect width="84" height="84" x="6" y="6" fill="#fff" rx="6" ry="6"/>
    </clipPath>
    <clipPath id="n">
      <rect width="84" height="84" x="6" y="6" fill="#ff2a2a" rx="6" ry="6"/>
    </clipPath>
    <filter id="I" width="1.3839999" height="1.3839999" x="-.192" y="-.192" color-interpolation-filters="sRGB">
      <feGaussianBlur stdDeviation="5.28"/>
    </filter>
  </defs>
  <g transform="scale(1 -1)">
    <path fill="url(#f)" d="M12-95.03125C6.4889097-95.03125 1.96875-90.51109 1.96875-85v71C1.96875-8.4889098 6.4889098-3.96875 12-3.96875h72c5.51109 0 10.03125-4.5201597 10.03125-10.03125v-71c0-5.51109-4.52016-10.03125-10.03125-10.03125H12z" opacity=".07999998"/>
    <path fill="url(#g)" d="M12-94.03125c-4.971633 0-9.03125 4.059617-9.03125 9.03125v71c0 4.9716329 4.0596171 9.03125 9.03125 9.03125h72c4.971633 0 9.03125-4.059617 9.03125-9.03125v-71c0-4.971633-4.059617-9.03125-9.03125-9.03125H12z" opacity=".1"/>
    <path fill="url(#h)" d="M12-93c-4.4091333 0-8 3.590867-8 8v71c0 4.4091333 3.5908667 8 8 8h72c4.409133 0 8-3.5908667 8-8v-71c0-4.409133-3.590867-8-8-8H12z" opacity=".2"/>
    <rect width="86" height="85" x="5" y="-92" fill="url(#i)" opacity=".3" rx="7" ry="7"/>
    <rect width="84" height="84" x="6" y="-91" fill="url(#j)" opacity=".45" rx="6" ry="6"/>
  </g>
  <rect width="84" height="84" x="6" y="6" fill="url(#k)" rx="6" ry="6"/>
  <path fill="url(#l)" d="M12 6c-3.324 0-6 2.676-6 6v72c0 .334721.04135.6507.09375.96875.0487.295596.09704.596915.1875.875.00988.03038.020892.0636.03125.09375.098865.287771.2348802.547452.375.8125.1445918.273507.3156161.535615.5.78125.1843839.245635.3737765.473472.59375.6875.439947.428056.94291.814526 1.5 1.09375.278545.139612.5734731.246947.875.34375-.2562018-.100222-.4867109-.236272-.71875-.375-.00741-.0044-.023866.0045-.03125 0-.031933-.0193-.062293-.04251-.09375-.0625-.120395-.0767-.2310226-.163513-.34375-.25-.1061728-.0808-.2132809-.161112-.3125-.25-.1779299-.161433-.3474596-.345388-.5-.53125-.1075789-.130255-.2183939-.265285-.3125-.40625-.025089-.03838-.038446-.08587-.0625-.125-.064763-.103032-.1302275-.204517-.1875-.3125-.1010083-.194706-.2056748-.415701-.28125-.625-.00796-.02181-.023589-.04055-.03125-.0625-.0318251-.09195-.0358045-.186831-.0625-.28125-.0303323-.106618-.0703894-.203031-.09375-.3125C7.0521214 85.720988 7 85.364295 7 85V13c0-2.781848 2.2181517-5 5-5h72c2.781848 0 5 2.218152 5 5v72c0 .364295-.05212.720988-.125 1.0625-.04415.206893-.08838.397658-.15625.59375-.0077.02195-.0233.04069-.03125.0625-.06274.173739-.138383.367449-.21875.53125-.04158.0828-.07904.169954-.125.25-.0546.09721-.126774.18835-.1875.28125-.09411.140965-.204921.275995-.3125.40625-.143174.17445-.303141.346998-.46875.5-.01117.0102-.01998.02115-.03125.03125-.138386.125556-.285091.234436-.4375.34375-.102571.07315-.204318.153364-.3125.21875-.0074.0045-.02384-.0044-.03125 0-.232039.138728-.462548.274778-.71875.375.301527-.0968.596455-.204138.875-.34375.55709-.279224 1.060053-.665694 1.5-1.09375.219973-.214028.409366-.441865.59375-.6875s.355408-.507743.5-.78125c.14012-.265048.276135-.524729.375-.8125.01041-.03078.02133-.06274.03125-.09375.09046-.278085.1388-.579404.1875-.875C89.95865 84.6507 90 84.334721 90 84V12c0-3.324-2.676-6-6-6H12z" opacity=".5"/>
  <path fill="url(#m)" d="M12 90c-3.324 0-6-2.676-6-6V12c0-.334721.04135-.6507.09375-.96875.0487-.295596.09704-.596915.1875-.875.00988-.03038.020892-.0636.03125-.09375.098865-.287771.2348802-.547452.375-.8125.1445918-.273507.3156161-.535615.5-.78125.1843839-.245635.3737765-.473472.59375-.6875.439947-.428056.94291-.814526 1.5-1.09375.278545-.139612.5734731-.246947.875-.34375-.2562018.100222-.4867109.236272-.71875.375-.00741.0044-.023866-.0045-.03125 0-.031933.0193-.062293.04251-.09375.0625-.120395.0767-.2310226.163513-.34375.25-.1061728.0808-.2132809.161112-.3125.25-.1779299.161433-.3474596.345388-.5.53125-.1075789.130255-.2183939.265285-.3125.40625-.025089.03838-.038446.08587-.0625.125-.064763.103032-.1302275.204517-.1875.3125-.1010083.194706-.2056748.415701-.28125.625-.00796.02181-.023589.04055-.03125.0625-.0318251.09195-.0358045.186831-.0625.28125-.0303323.106618-.0703894.203031-.09375.3125C7.0521214 10.279012 7 10.635705 7 11v72c0 2.781848 2.2181517 5 5 5h72c2.781848 0 5-2.218152 5-5V11c0-.364295-.05212-.720988-.125-1.0625-.04415-.206893-.08838-.397658-.15625-.59375-.0077-.02195-.0233-.04069-.03125-.0625-.06274-.173739-.138383-.367449-.21875-.53125-.04158-.0828-.07904-.169954-.125-.25-.0546-.09721-.126774-.18835-.1875-.28125-.09411-.140965-.204921-.275995-.3125-.40625-.143174-.17445-.303141-.346998-.46875-.5-.01117-.0102-.01998-.02115-.03125-.03125-.138386-.125556-.285091-.234436-.4375-.34375-.102571-.07315-.204318-.153364-.3125-.21875-.0074-.0045-.02384.0044-.03125 0-.232039-.138728-.462548-.274778-.71875-.375.301527.0968.596455.204138.875.34375.55709.279224 1.060053.665694 1.5 1.09375.219973.214028.409366.441865.59375.6875s.355408.507743.5.78125c.14012.265048.276135.524729.375.8125.01041.03078.02133.06274.03125.09375.09046.278085.1388.579404.1875.875.0524.31805.09375.634029.09375.96875v72c0 3.324-2.676 6-6 6H12z" opacity=".2"/>
  <g clip-path="url(#n)">
    <path fill="url(#o)" d="M31.249999 22.607143a8.0357141 8.0357141 0 1 1-16.071428 0 8.0357141 8.0357141 0 1 1 16.071428 0z" transform="translate(2)"/>
    <path fill="url(#p)" d="M46.785713 28.678572a4.1071429 4.1071429 0 1 1-8.214286 0 4.1071429 4.1071429 0 1 1 8.214286 0z"/>
    <path fill="url(#q)" d="M55.17857 23.5a2.1428571 2.1428571 0 1 1-4.285714 0 2.1428571 2.1428571 0 1 1 4.285714 0z"/>
    <path fill="url(#r)" d="M67.32143 35.82143a5.3571429 5.3571429 0 1 1-10.714286 0 5.3571429 5.3571429 0 1 1 10.714286 0z"/>
    <path fill="url(#s)" d="M36.25 59.75a6.6071429 6.6071429 0 1 1-13.214286 0 6.6071429 6.6071429 0 1 1 13.214286 0z"/>
    <path fill="url(#t)" d="M72.678573 67.964287a8.2142859 8.2142859 0 1 1-16.428572 0 8.2142859 8.2142859 0 1 1 16.428572 0z" transform="translate(-12.639752 -13.248447) scale(1.17391)"/>
    <path fill="url(#u)" d="M51.42857 55.285713a3.3928571 3.3928571 0 1 1-6.785714 0 3.3928571 3.3928571 0 1 1 6.785714 0z"/>
    <path fill="url(#v)" d="M18.928571 74.035713a7.8571429 7.8571429 0 1 1-15.7142856 0 7.8571429 7.8571429 0 1 1 15.7142856 0z" transform="translate(-1)"/>
    <path fill="url(#w)" d="M37.5 85.64286a4.1071429 4.1071429 0 1 1-8.214286 0 4.1071429 4.1071429 0 1 1 8.214286 0z" transform="translate(-1.4285714 -2.1428571)"/>
    <path fill="url(#x)" d="M55.714286 85.10714a5.3571429 5.3571429 0 1 1-10.714286 0 5.3571429 5.3571429 0 1 1 10.714286 0z" transform="translate(1.4285714 3.0357143)"/>
    <path fill="url(#y)" d="M76.428568 12.785714a3.5714285 3.5714285 0 1 1-7.142857 0 3.5714285 3.5714285 0 1 1 7.142857 0z"/>
    <path fill="url(#z)" d="M88.928575 22.071428a9.2857141 9.2857141 0 1 1-18.571429 0 9.2857141 9.2857141 0 1 1 18.571429 0z" transform="translate(3.5714286 6.6071429)"/>
    <rect width="4.2857141" height="4.2857141" x="75.714287" y="76.535713" fill="url(#A)" rx="6" ry="4.2857141"/>
    <rect width="9.6428576" height="9.6428576" x="77.142853" y="63.142857" fill="url(#B)" rx="6" ry="4.2857141"/>
    <path fill="url(#C)" d="M15.357143 33.142857a3.2142856 3.2142856 0 1 1-6.4285711 0 3.2142856 3.2142856 0 1 1 6.4285711 0z" transform="translate(2)"/>
    <path fill="url(#D)" d="M39.999999 3.1428571a6.0714288 6.0714288 0 1 1-12.142858 0 6.0714288 6.0714288 0 1 1 12.142858 0z"/>
    <path fill="url(#E)" d="M8.3928571 15.107142a7.1428571 6.9642859 0 1 1-14.2857142 0 7.1428571 6.9642859 0 1 1 14.2857142 0z" transform="translate(2 3.3928571)"/>
    <path fill="url(#F)" d="M62.5 6.9821429a2.7678571 2.7678571 0 1 1-5.535714 0 2.7678571 2.7678571 0 1 1 5.535714 0z" transform="translate(5 -.71428571)"/>
    <path fill="#fff" d="M27.875 3.78125c-.0076.1241111-.03125.2490475-.03125.375 0 3.3531575 2.740592 6.0625 6.09375 6.0625S40 7.5094075 40 4.15625c0-.1259525-.02371-.2508889-.03125-.375-.309937 3.0605739-2.887664 5.4375-6.03125 5.4375s-5.74913-2.3769261-6.0625-5.4375zm34.15625 3.0625c-.0224.1429745-.0625.2883639-.0625.4375 0 1.5286453 1.221355 2.75 2.75 2.75S67.5 8.8098953 67.5 7.28125c0-.1491361-.03956-.2945255-.0625-.4375-.260656 1.2578478-1.381186 2.1875-2.71875 2.1875s-2.432826-.9296522-2.6875-2.1875zm7.28125 6.4375c-.02316.164608-.03125.328845-.03125.5 0 1.972446 1.590054 3.5625 3.5625 3.5625s3.59375-1.590054 3.59375-3.5625c0-.171155-.0077-.335392-.03125-.5-.248222 1.732383-1.761209 3.0625-3.5625 3.0625s-3.287551-1.330117-3.53125-3.0625zM-3.875 19c-.011957.164429-.03125.332633-.03125.5 0 3.846269 3.211359 6.96875 7.15625 6.96875s7.15625-3.122481 7.15625-6.96875c0-.167367-.01929-.335571-.03125-.5-.26283 3.614309-3.3517676 6.46875-7.125 6.46875S-3.6121697 22.614309-3.875 19zm21.09375 4.09375c-.01049.168189-.03125.32915-.03125.5 0 4.438002 3.593248 8.0625 8.03125 8.0625S33.25 28.031752 33.25 23.59375c0-.17085-.02076-.331811-.03125-.5-.262092 4.202923-3.732848 7.5625-8 7.5625-4.267152 0-7.737908-3.359577-8-7.5625zm33.75.90625c-.03759.160694-.0625.328077-.0625.5 0 1.183467.941533 2.15625 2.125 2.15625S55.1875 25.683467 55.1875 24.5c0-.171923-.02378-.339306-.0625-.5-.227828.945478-1.082206 1.65625-2.09375 1.65625S51.189945 24.945478 50.96875 24zM38.625 29.1875c-.01985.163158-.0625.331721-.0625.5 0 2.268312 1.856688 4.09375 4.125 4.09375s4.09375-1.825438 4.09375-4.09375c0-.168279-.04297-.336842-.0625-.5-.251927 2.023112-1.937615 3.59375-4.03125 3.59375s-3.806473-1.570638-4.0625-3.59375zm35.34375 0c-.0091.168614-.03125.329102-.03125.5 0 5.128358 4.152892 9.28125 9.28125 9.28125S92.5 34.815858 92.5 29.6875c0-.170898-.02214-.331386-.03125-.5-.264148 4.891202-4.29254 8.78125-9.25 8.78125s-8.985852-3.890048-9.25-8.78125zM11 33.65625c-.02537.162523-.0625.330458-.0625.5 0 1.775201 1.443549 3.1875 3.21875 3.1875s3.1875-1.412299 3.1875-3.1875c0-.169542-.03765-.337477-.0625-.5-.235343 1.534304-1.519341 2.6875-3.125 2.6875S11.240227 35.190554 11 33.65625zM56.625 36.375c-.01122.141026-.03125.293549-.03125.4375 0 2.958668 2.416332 5.375 5.375 5.375s5.34375-2.416332 5.34375-5.375c0-.143951-.02017-.296474-.03125-.4375-.272868 2.703333-2.538749 4.8125-5.3125 4.8125s-5.067449-2.109167-5.34375-4.8125zM44.6875 55.78125c-.02385.162942-.03125.330089-.03125.5 0 1.873823 1.501177 3.40625 3.375 3.40625s3.40625-1.532427 3.40625-3.40625c0-.169911-.0069-.337058-.03125-.5-.243805 1.638708-1.671088 2.90625-3.375 2.90625s-3.104631-1.267542-3.34375-2.90625zM23.0625 60.25c-.0121.162867-.03125.334007-.03125.5 0 3.649024 2.975976 6.59375 6.625 6.59375S36.25 64.399024 36.25 60.75c0-.165993-.01927-.337133-.03125-.5-.251297 3.417444-3.079469 6.09375-6.5625 6.09375S23.316387 63.667444 23.0625 60.25zm54.09375 8.25v1c0 2.374286 2.141428 4.28125 4.8125 4.28125s4.8125-1.906964 4.8125-4.28125v-1c0 2.374286-2.141428 4.28125-4.8125 4.28125s-4.8125-1.906964-4.8125-4.28125zM2.25 74.53125c-.010235.164426-.03125.332947-.03125.5 0 4.33938 3.5043698 7.875 7.84375 7.875 4.33938 0 7.875-3.53562 7.875-7.875 0-.167053-.02093-.335574-.03125-.5-.257849 4.108931-3.671423 7.375-7.84375 7.375-4.1723269 0-7.5568751-3.266069-7.8125-7.375zm73.53125 4.65625c-.03747.160951-.0625.327543-.0625.5 0 1.187143.937857 2.125 2.125 2.125 1.187143 0 2.15625-.937857 2.15625-2.125 0-.172457-.0239-.339049-.0625-.5-.227114.94036-1.079064 1.625-2.09375 1.625s-1.842019-.68464-2.0625-1.625zM27.90625 84c-.02136.168793-.0625.325323-.0625.5 0 2.268312 1.856688 4.09375 4.125 4.09375S36.0625 86.768312 36.0625 84.5c0-.174677-.04148-.331207-.0625-.5-.251927 2.023112-1.937615 3.59375-4.03125 3.59375S28.162277 86.023112 27.90625 84zm18.5625 4.71875c-.01108.141167-.03125.293549-.03125.4375 0 2.958668 2.385082 5.34375 5.34375 5.34375s5.375-2.385082 5.375-5.34375c0-.143951-.02003-.296333-.03125-.4375-.276301 2.6999-2.569999 4.78125-5.34375 4.78125s-5.039632-2.08135-5.3125-4.78125zm6.96875-21.6875c-.0089.169747-.03125.328039-.03125.5 0 5.325603 4.299397 9.65625 9.625 9.65625s9.65625-4.330647 9.65625-9.65625c0-.171771-.02238-.330438-.03125-.5-.258266 5.094995-4.465822 9.15625-9.625 9.15625-5.159015 0-9.335243-4.061481-9.59375-9.15625z" opacity=".5"/>
  </g>
  <rect width="66" height="66" x="15" y="15" fill="url(#G)" stroke="#fff" stroke-linecap="round" stroke-width=".5" clip-path="url(#H)" filter="url(#I)" opacity=".1" rx="12" ry="12"/>
</svg>